<svg xmlns="http://www.w3.org/2000/svg" baseProfile="full" version="1.1" style="fill: none;" width="2505px" height="1200px"><path style="stroke-width: 6px; stroke-linecap: round; stroke-linejoin: round; stroke: rgb(106, 106, 106); fill: none;" d="M1230,495 A15,15 0 0,0 1215,480 L1200,480 A15,15 0 0,0 1185,495 M1275,495 A15,15 0 0,1 1290,480 L1305,480 A15,15 0 0,1 1320,495 "/><path style="stroke-width: 1px; stroke-linecap: round; stroke-linejoin: round; stroke: rgb(74, 74, 74); fill: rgb(74, 74, 74);" d="M1230,615 L1230,615 L1215,600 L1215,600 L1200,555 M1245,630 L1245,630 L1245,630 L1230,615 L1245,630 L1245,630 L1245,630 L1245,630 L1245,630 L1245,630 L1245,630 L1245,630 L1230,615 L1230,615 L1245,630 L1245,630 L1245,630 L1245,630 A15,15 0 0,0 1230,615 A15,15 0 0,0 1245,630 L1245,630 L1245,630 A15,15 0 0,0 1230,615 L1230,615 L1230,615 A15,15 0 0,0 1245,630 L1245,630 M1230,615 A15,15 0 0,0 1245,630 L1245,630 L1245,630 L1245,630 M1230,615 A15,15 0 0,1 1245,630 L1245,630 L1245,630 L1245,630 L1230,615 A30,15 0 0,1 1260,630 M1230,645 A15,15 0 0,0 1245,630 M1185,420 L1185,420 L1200,420 L1200,390 M1275,615 L1275,615 L1290,600 L1290,600 L1305,555 M1260,630 L1260,630 L1260,630 L1275,615 L1260,630 L1260,630 L1260,630 L1260,630 L1260,630 L1260,630 L1260,630 L1260,630 L1275,615 L1275,615 L1260,630 L1260,630 L1260,630 L1260,630 A15,15 0 0,1 1275,615 A15,15 0 0,1 1260,630 L1260,630 L1260,630 A15,15 0 0,1 1275,615 L1275,615 L1275,615 A15,15 0 0,1 1260,630 L1260,630 M1275,615 A15,15 0 0,1 1260,630 L1260,630 L1260,630 L1260,630 M1275,615 A15,15 0 0,0 1260,630 L1260,630 L1260,630 L1260,630 L1275,615 A30,15 0 0,0 1245,630 M1275,645 A15,15 0 0,1 1260,630 M1320,420 L1320,420 L1305,420 L1305,390 "/><path style="stroke-width: 6px; stroke-linecap: round; stroke-linejoin: round; stroke: rgb(10, 10, 10); fill: none;" d="M1170,420 L1170,420 L1200,360 L1215,420 L1215,420 L1245,435 L1260,435 M1170,420 L1170,420 L1155,465 L1155,465 L1155,465 L1155,510 L1155,510 L1170,570 M1155,510 L1155,510 L1155,510 M1215,645 L1215,645 L1170,570 M1215,645 L1215,645 L1215,645 L1245,660 L1245,660 L1260,660 M1335,420 L1335,420 L1305,360 L1290,420 L1290,420 L1260,435 L1245,435 M1335,420 L1335,420 L1350,465 L1350,465 L1350,465 L1350,510 L1350,510 L1335,570 M1350,510 L1350,510 L1350,510 M1290,645 L1290,645 L1335,570 M1290,645 L1290,645 L1290,645 L1260,660 L1260,660 L1245,660 "/></svg>